{
	"asset":{
		"generator":"Khronos glTF Blender I/O v4.0.44",
		"version":"2.0"
	},
	"scene":0,
	"scenes":[
		{
			"extras":{
				"uuid":"7ee55a5f-d074-4d67-a17f-c0d5d5b1f92f",
				"assets reported":{},
				"follow_normals_target_object":{}
			},
			"name":"Scene",
			"nodes":[
				0,
				0
			]
		}
	],
	"nodes":[
		{
			"extras":{
				"copyright":"(c) 2018- polygoniq xyz s.r.o.",
				"polygoniq_addon":"botaniq",
				"polygoniq_addon_blend_path":"blends_280/deciduous/Tree_Aesculus-hippocastanum_D_summer.blend",
				"hops":{},
				"bq_season_offset":1.0,
				"bq_brightness":1.0,
				"bq_random_per_branch":1.0,
				"bq_random_per_leaf":1.0
			},
			"mesh":0,
			"name":"Tree_Aesculus-hippocastanum_D_summer.003"
		},
		{
			"extras":{
				"copyright":"(c) 2018- polygoniq xyz s.r.o.",
				"polygoniq_addon":"botaniq",
				"polygoniq_addon_blend_path":"blends_280/deciduous/Tree_Aesculus-hippocastanum_D_summer.blend",
				"hops":{},
				"bq_season_offset":1.0,
				"bq_brightness":1.0,
				"bq_random_per_branch":1.0,
				"bq_random_per_leaf":1.0
			},
			"mesh":1,
			"name":"Tree_Aesculus-hippocastanum_D_summer.004"
		}
	],
	"materials":[
		{
			"doubleSided":true,
			"extras":{
				"copyright":"(c) 2018- polygoniq xyz s.r.o.",
				"polygoniq_addon":"botaniq",
				"polygoniq_addon_blend_path":"blends_280/deciduous/Tree_Aesculus-hippocastanum_A_summer.blend"
			},
			"name":"bq_Bark_Aesculus-hippocastanum.005",
			"normalTexture":{
				"index":0
			},
			"pbrMetallicRoughness":{
				"baseColorTexture":{
					"index":1
				}
			}
		},
		{
			"alphaCutoff":0.3499999940395355,
			"alphaMode":"MASK",
			"doubleSided":true,
			"extras":{
				"copyright":"(c) 2018- polygoniq xyz s.r.o.",
				"polygoniq_addon":"botaniq",
				"polygoniq_addon_blend_path":"blends_280/deciduous/Tree_Aesculus-hippocastanum_A_summer.blend"
			},
			"name":"bq_Leaf_Aesculus-hippocastanum.005",
			"normalTexture":{
				"index":2
			},
			"pbrMetallicRoughness":{
				"baseColorTexture":{
					"index":3
				}
			}
		}
	],
	"meshes":[
		{
			"extras":{
				"copyright":"(c) 2018- polygoniq xyz s.r.o.",
				"polygoniq_addon":"botaniq",
				"polygoniq_addon_blend_path":"blends_280/deciduous/Tree_Aesculus-hippocastanum_D_summer.blend"
			},
			"name":"Tree_Aesculus-hippocastanum_D_summer.011",
			"primitives":[
				{
					"attributes":{
						"POSITION":0,
						"NORMAL":1,
						"TEXCOORD_0":2,
						"TEXCOORD_1":3,
						"TEXCOORD_2":4
					},
					"indices":5,
					"material":0
				}
			]
		},
		{
			"extras":{
				"copyright":"(c) 2018- polygoniq xyz s.r.o.",
				"polygoniq_addon":"botaniq",
				"polygoniq_addon_blend_path":"blends_280/deciduous/Tree_Aesculus-hippocastanum_D_summer.blend"
			},
			"name":"Tree_Aesculus-hippocastanum_D_summer.012",
			"primitives":[
				{
					"attributes":{
						"POSITION":6,
						"NORMAL":7,
						"TEXCOORD_0":8,
						"TEXCOORD_1":9,
						"TEXCOORD_2":10
					},
					"indices":11,
					"material":1
				}
			]
		}
	],
	"textures":[
		{
			"sampler":0,
			"source":0
		},
		{
			"sampler":0,
			"source":1
		},
		{
			"sampler":0,
			"source":2
		},
		{
			"sampler":0,
			"source":3
		}
	],
	"images":[
		{
			"mimeType":"image/jpeg",
			"name":"Bark_Aesculus-hippocastanum_Normal.jpg",
			"uri":"textures/Bark_Aesculus-hippocastanum_Normal.jpg"
		},
		{
			"mimeType":"image/jpeg",
			"name":"Bark_Aesculus-hippocastanum_Diffuse.jpg",
			"uri":"textures/Bark_Aesculus-hippocastanum_Diffuse_jpg.jpg"
		},
		{
			"mimeType":"image/jpeg",
			"name":"Leaf_Aesculus-hippocastanum_Normal.jpg",
			"uri":"textures/Leaf_Aesculus-hippocastanum_Normal.jpg"
		},
		{
			"mimeType":"image/png",
			"name":"Leaf_Aesculus-hippocastanum_Diffuse.png",
			"uri":"textures/Leaf_Aesculus-hippocastanum_Diffuse_png.png"
		}
	],
	"accessors":[
		{
			"bufferView":0,
			"componentType":5126,
			"count":129379,
			"max":[
				12.497583389282227,
				21.38738250732422,
				12.92225456237793
			],
			"min":[
				-12.639480590820312,
				0.10139834880828857,
				-10.55881118774414
			],
			"type":"VEC3"
		},
		{
			"bufferView":1,
			"componentType":5126,
			"count":129379,
			"type":"VEC3"
		},
		{
			"bufferView":2,
			"componentType":5126,
			"count":129379,
			"type":"VEC2"
		},
		{
			"bufferView":3,
			"componentType":5126,
			"count":129379,
			"type":"VEC2"
		},
		{
			"bufferView":4,
			"componentType":5126,
			"count":129379,
			"type":"VEC2"
		},
		{
			"bufferView":5,
			"componentType":5125,
			"count":435252,
			"type":"SCALAR"
		},
		{
			"bufferView":6,
			"componentType":5126,
			"count":179930,
			"max":[
				12.899463653564453,
				21.15364646911621,
				13.314726829528809
			],
			"min":[
				-13.138349533081055,
				1.3110322952270508,
				-11.020292282104492
			],
			"type":"VEC3"
		},
		{
			"bufferView":7,
			"componentType":5126,
			"count":179930,
			"type":"VEC3"
		},
		{
			"bufferView":8,
			"componentType":5126,
			"count":179930,
			"type":"VEC2"
		},
		{
			"bufferView":9,
			"componentType":5126,
			"count":179930,
			"type":"VEC2"
		},
		{
			"bufferView":10,
			"componentType":5126,
			"count":179930,
			"type":"VEC2"
		},
		{
			"bufferView":11,
			"componentType":5125,
			"count":431832,
			"type":"SCALAR"
		}
	],
	"bufferViews":[
		{
			"buffer":0,
			"byteLength":1552548,
			"byteOffset":0,
			"target":34962
		},
		{
			"buffer":0,
			"byteLength":1552548,
			"byteOffset":1552548,
			"target":34962
		},
		{
			"buffer":0,
			"byteLength":1035032,
			"byteOffset":3105096,
			"target":34962
		},
		{
			"buffer":0,
			"byteLength":1035032,
			"byteOffset":4140128,
			"target":34962
		},
		{
			"buffer":0,
			"byteLength":1035032,
			"byteOffset":5175160,
			"target":34962
		},
		{
			"buffer":0,
			"byteLength":1741008,
			"byteOffset":6210192,
			"target":34963
		},
		{
			"buffer":0,
			"byteLength":2159160,
			"byteOffset":7951200,
			"target":34962
		},
		{
			"buffer":0,
			"byteLength":2159160,
			"byteOffset":10110360,
			"target":34962
		},
		{
			"buffer":0,
			"byteLength":1439440,
			"byteOffset":12269520,
			"target":34962
		},
		{
			"buffer":0,
			"byteLength":1439440,
			"byteOffset":13708960,
			"target":34962
		},
		{
			"buffer":0,
			"byteLength":1439440,
			"byteOffset":15148400,
			"target":34962
		},
		{
			"buffer":0,
			"byteLength":1727328,
			"byteOffset":16587840,
			"target":34963
		}
	],
	"samplers":[
		{
			"magFilter":9729,
			"minFilter":9987
		}
	],
	"buffers":[
		{
			"byteLength":18315168,
			"uri":"website.bin"
		}
	]
}
